<svg width="20" height="21" viewBox="0 0 20 21" fill="none" xmlns="http://www.w3.org/2000/svg">
<mask id="mask0_1898_515" style="mask-type:alpha" maskUnits="userSpaceOnUse" x="0" y="0" width="20" height="21">
<rect y="0.780273" width="20" height="20" fill="#D9D9D9"/>
</mask>
<g mask="url(#mask0_1898_515)">
<path d="M5.8335 18.2803C5.37516 18.2803 4.9828 18.1171 4.65641 17.7907C4.33002 17.4643 4.16683 17.0719 4.16683 16.6136V5.78027H3.3335V4.11361H7.50016V3.28027H12.5002V4.11361H16.6668V5.78027H15.8335V16.6136C15.8335 17.0719 15.6703 17.4643 15.3439 17.7907C15.0175 18.1171 14.6252 18.2803 14.1668 18.2803H5.8335ZM14.1668 5.78027H5.8335V16.6136H14.1668V5.78027ZM7.50016 14.9469H9.16683V7.44694H7.50016V14.9469ZM10.8335 14.9469H12.5002V7.44694H10.8335V14.9469Z" fill="white"/>
</g>
</svg>
