<svg width="27" height="80" viewBox="0 0 27 80" fill="none" xmlns="http://www.w3.org/2000/svg">
<g clip-path="url(#clip0_1875_28)">
<rect width="25.3203" height="79.3262" transform="translate(0.921875 0.365723)" fill="#E5D0BA"/>
<rect x="0.921875" y="0.365723" width="25.3203" height="45.1904" fill="#1285AD"/>
<mask id="path-2-outside-1_1875_28" maskUnits="userSpaceOnUse" x="0.00292969" y="38.427" width="27" height="42" fill="black">
<rect fill="white" x="0.00292969" y="38.427" width="27" height="42"/>
<path d="M0.00292969 40.427H27.0029V80.0901H0.00292969V40.427Z"/>
</mask>
<path d="M0.00292969 40.427H27.0029V80.0901H0.00292969V40.427Z" fill="#0E5099"/>
<path d="M0.00292969 42.3406H27.0029V38.5134H0.00292969V42.3406Z" fill="#E5D0BA" mask="url(#path-2-outside-1_1875_28)"/>
<mask id="path-4-outside-2_1875_28" maskUnits="userSpaceOnUse" x="-0.337891" y="38.0288" width="27" height="7" fill="black">
<rect fill="white" x="-0.337891" y="38.0288" width="27" height="7"/>
<path d="M-0.337891 40.0288H26.6621V45.0251H-0.337891V40.0288Z"/>
</mask>
<path d="M-0.337891 40.0288H26.6621V45.0251H-0.337891V40.0288Z" fill="#0F2E7C"/>
<path d="M-0.337891 41.9424H26.6621V38.1152H-0.337891V41.9424Z" fill="#E5D0BA" mask="url(#path-4-outside-2_1875_28)"/>
</g>
<defs>
<clipPath id="clip0_1875_28">
<rect width="25.3203" height="79.3262" fill="white" transform="translate(0.921875 0.365723)"/>
</clipPath>
</defs>
</svg>
