<svg width="26" height="80" viewBox="0 0 26 80" fill="none" xmlns="http://www.w3.org/2000/svg">
<g clip-path="url(#clip0_1875_16)">
<rect width="25.3203" height="79.3262" transform="translate(0.320312 0.365723)" fill="#E5D0BA"/>
<rect x="0.320312" y="0.365723" width="25.32" height="45.1904" fill="#5C3AA8"/>
<mask id="path-2-outside-1_1875_16" maskUnits="userSpaceOnUse" x="-0.598633" y="38.4275" width="27" height="42" fill="black">
<rect fill="white" x="-0.598633" y="38.4275" width="27" height="42"/>
<path d="M-0.598633 40.4275H26.4014V80.0906H-0.598633V40.4275Z"/>
</mask>
<path d="M-0.598633 40.4275H26.4014V80.0906H-0.598633V40.4275Z" fill="#0E5099"/>
<path d="M-0.598633 42.3411H26.4014V38.5139H-0.598633V42.3411Z" fill="#E5D0BA" mask="url(#path-2-outside-1_1875_16)"/>
<mask id="path-4-outside-2_1875_16" maskUnits="userSpaceOnUse" x="-0.519531" y="38.0288" width="27" height="7" fill="black">
<rect fill="white" x="-0.519531" y="38.0288" width="27" height="7"/>
<path d="M-0.519531 40.0288H26.4805V44.9712H-0.519531V40.0288Z"/>
</mask>
<path d="M-0.519531 40.0288H26.4805V44.9712H-0.519531V40.0288Z" fill="#0F2E7C"/>
<path d="M-0.519531 41.9424H26.4805V38.1152H-0.519531V41.9424Z" fill="#E5D0BA" mask="url(#path-4-outside-2_1875_16)"/>
</g>
<defs>
<clipPath id="clip0_1875_16">
<rect width="25.3203" height="79.3262" fill="white" transform="translate(0.320312 0.365723)"/>
</clipPath>
</defs>
</svg>
