<svg width="26" height="80" viewBox="0 0 26 80" fill="none" xmlns="http://www.w3.org/2000/svg">
<g clip-path="url(#clip0_1875_49)">
<rect width="25.3203" height="79.3262" transform="translate(0.320312 0.365723)" fill="#E5D0BA"/>
<rect x="0.320312" y="0.365723" width="25.32" height="45.0578" fill="#D81D3C"/>
<mask id="path-2-outside-1_1875_49" maskUnits="userSpaceOnUse" x="-0.743164" y="38.2947" width="27" height="42" fill="black">
<rect fill="white" x="-0.743164" y="38.2947" width="27" height="42"/>
<path d="M-0.743164 40.2947H26.2568V79.9578H-0.743164V40.2947Z"/>
</mask>
<path d="M-0.743164 40.2947H26.2568V79.9578H-0.743164V40.2947Z" fill="#3C4C59"/>
<path d="M-0.743164 42.2083H26.2568V38.3811H-0.743164V42.2083Z" fill="#E5D0BA" mask="url(#path-2-outside-1_1875_49)"/>
<mask id="path-4-outside-2_1875_49" maskUnits="userSpaceOnUse" x="-0.519531" y="38.0288" width="27" height="7" fill="black">
<rect fill="white" x="-0.519531" y="38.0288" width="27" height="7"/>
<path d="M-0.519531 40.0288H26.4805V44.9712H-0.519531V40.0288Z"/>
</mask>
<path d="M-0.519531 40.0288H26.4805V44.9712H-0.519531V40.0288Z" fill="#20262C"/>
<path d="M-0.519531 41.9424H26.4805V38.1152H-0.519531V41.9424Z" fill="#E5D0BA" mask="url(#path-4-outside-2_1875_49)"/>
</g>
<defs>
<clipPath id="clip0_1875_49">
<rect width="25.3203" height="79.3262" fill="white" transform="translate(0.320312 0.365723)"/>
</clipPath>
</defs>
</svg>
